<svg xmlns="http://www.w3.org/2000/svg" xml:space="preserve" style="max-width:100%;height:auto" width="1023" height="1023" viewBox="0 0 1023 1023"><path fill="#fff" d="M0 0h1023v1023H0z"/><path d="M310 62h31.93v31.93H310zm62 0h31.93v31.93H372zm93 0h31.93v31.93H465z"/><path d="M496 62h31.93v31.93H496z"/><path d="M527 62h31.93v31.93H527z"/><path d="M558 62h31.93v31.93H558z"/><path d="M589 62h31.93v31.93H589z"/><path d="M620 62h31.93v31.93H620zm62 0h31.93v31.93H682zM310 93h31.93v31.93H310z"/><path d="M341 93h31.93v31.93H341zm62 0h31.93v31.93H403z"/><path d="M434 93h31.93v31.93H434z"/><path d="M465 93h31.93v31.93H465zm124 0h31.93v31.93H589zm62 0h31.93v31.93H651zm-341 31h31.93v31.93H310z"/><path d="M341 124h31.93v31.93H341zm62 0h31.93v31.93H403z"/><path d="M434 124h31.93v31.93H434zm93 0h31.93v31.93H527zm93 0h31.93v31.93H620z"/><path d="M651 124h31.93v31.93H651z"/><path d="M682 124h31.93v31.93H682zm-341 31h31.93v31.93H341z"/><path d="M372 155h31.93v31.93H372z"/><path d="M403 155h31.93v31.93H403z"/><path d="M434 155h31.93v31.93H434z"/><path d="M465 155h31.93v31.93H465zm124 0h31.93v31.93H589zm62 0h31.93v31.93H651zm-279 31h31.93v31.93H372z"/><path d="M434 186h31.93v31.93H434zm93 0h31.93v31.93H527zm93 0h31.93v31.93H620z"/><path d="M651 186h31.93v31.93H651zm-341 31h31.93v31.93H310z"/><path d="M341 217h31.93v31.93H341zm62 0h31.93v31.93H403zm62 0h31.93v31.93H465z"/><path d="M496 217h31.93v31.93H496z"/><path d="M527 217h31.93v31.93H527z"/><path d="M558 217h31.93v31.93H558zm62 0h31.93v31.93H620zm62 0h31.93v31.93H682zm-372 31h31.93v31.93H310zm62 0h31.93v31.93H372zm62 0h31.93v31.93H434zm62 0h31.93v31.93H496z"/><path d="M558 248h31.93v31.93H558zm62 0h31.93v31.93H620zm62 0h31.93v31.93H682zm-372 31h31.93v31.93H310z"/><path d="M341 279h31.93v31.93H341z"/><path d="M372 279h31.93v31.93H372z"/><path d="M403 279h31.93v31.93H403z"/><path d="M434 279h31.93v31.93H434zm62 0h31.93v31.93H496z"/><path d="M527 279h31.93v31.93H527zm-403 31h31.93v31.93H124z"/><path d="M155 310h31.93v31.93H155z"/><path d="M186 310h31.93v31.93H186zm62 0h31.93v31.93H248zm62 0h31.93v31.93H310zm93 0h31.93v31.93H403zm217 0h31.93v31.93H620zm93 0h31.93v31.93H713z"/><path d="M744 310h31.93v31.93H744z"/><path d="M775 310h31.93v31.93H775zm93 0h31.93v31.93H868z"/><path d="M899 310h31.93v31.93H899z"/><path d="M930 310h31.93v31.93H930zM62 341h31.93v31.93H62z"/><path d="M93 341h31.93v31.93H93zm62 0h31.93v31.93H155z"/><path d="M186 341h31.93v31.93H186zm93 0h31.93v31.93H279zm62 0h31.93v31.93H341z"/><path d="M372 341h31.93v31.93H372z"/><path d="M403 341h31.93v31.93H403z"/><path d="M434 341h31.93v31.93H434z"/><path d="M465 341h31.93v31.93H465z"/><path d="M496 341h31.93v31.93H496zm93 0h31.93v31.93H589zm124 0h31.93v31.93H713z"/><path d="M744 341h31.93v31.93H744z"/><path d="M775 341h31.93v31.93H775z"/><path d="M806 341h31.93v31.93H806z"/><path d="M837 341h31.93v31.93H837z"/><path d="M868 341h31.93v31.93H868zm62 0h31.93v31.93H930zM62 372h31.93v31.93H62z"/><path d="M93 372h31.93v31.93H93z"/><path d="M124 372h31.93v31.93H124z"/><path d="M155 372h31.93v31.93H155z"/><path d="M186 372h31.93v31.93H186z"/><path d="M217 372h31.93v31.93H217z"/><path d="M248 372h31.93v31.93H248zm155 0h31.93v31.93H403zm62 0h31.93v31.93H465z"/><path d="M496 372h31.93v31.93H496z"/><path d="M527 372h31.93v31.93H527z"/><path d="M558 372h31.93v31.93H558z"/><path d="M589 372h31.93v31.93H589zm93 0h31.93v31.93H682z"/><path d="M713 372h31.93v31.93H713z"/><path d="M744 372h31.93v31.93H744z"/><path d="M775 372h31.93v31.93H775z"/><path d="M806 372h31.93v31.93H806zm62 0h31.93v31.93H868zM62 403h31.93v31.93H62z"/><path d="M93 403h31.93v31.93H93z"/><path d="M124 403h31.93v31.93H124z"/><path d="M155 403h31.93v31.93H155zm124 0h31.93v31.93H279zm124 0h31.93v31.93H403zm62 0h31.93v31.93H465zm62 0h31.93v31.93H527zm155 0h31.93v31.93H682z"/><path d="M713 403h31.93v31.93H713z"/><path d="M744 403h31.93v31.93H744zm62 0h31.93v31.93H806z"/><path d="M837 403h31.93v31.93H837zm62 0h31.93v31.93H899zM62 434h31.93v31.93H62z"/><path d="M93 434h31.93v31.93H93z"/><path d="M124 434h31.93v31.93H124zm62 0h31.93v31.93H186zm62 0h31.93v31.93H248z"/><path d="M279 434h31.93v31.93H279zm124 0h31.93v31.93H403zm62 0h31.93v31.93H465zm62 0h31.93v31.93H527zm186 0h31.93v31.93H713zm62 0h31.93v31.93H775zm93 0h31.93v31.93H868z"/><path d="M899 434h31.93v31.93H899z"/><path d="M930 434h31.93v31.93H930zM62 465h31.93v31.93H62z"/><path d="M93 465h31.93v31.93H93z"/><path d="M124 465h31.93v31.93H124zm62 0h31.93v31.93H186z"/><path d="M217 465h31.93v31.93H217zm62 0h31.93v31.93H279z"/><path d="M310 465h31.93v31.93H310z"/><path d="M341 465h31.93v31.93H341z"/><path d="M372 465h31.93v31.93H372zm62 0h31.93v31.93H434z"/><path d="M465 465h31.93v31.93H465zm62 0h31.93v31.93H527zm62 0h31.93v31.93H589zm62 0h31.93v31.93H651z"/><path d="M682 465h31.93v31.93H682z"/><path d="M713 465h31.93v31.93H713z"/><path d="M744 465h31.93v31.93H744zm62 0h31.93v31.93H806z"/><path d="M837 465h31.93v31.93H837zm62 0h31.93v31.93H899z"/><path d="M930 465h31.93v31.93H930zM93 496h31.93v31.93H93zm62 0h31.93v31.93H155zm62 0h31.93v31.93H217z"/><path d="M248 496h31.93v31.93H248z"/><path d="M279 496h31.93v31.93H279z"/><path d="M310 496h31.93v31.93H310z"/><path d="M341 496h31.93v31.93H341z"/><path d="M372 496h31.93v31.93H372zm62 0h31.93v31.93H434z"/><path d="M465 496h31.93v31.93H465z"/><path d="M496 496h31.93v31.93H496z"/><path d="M527 496h31.93v31.93H527zm155 0h31.93v31.93H682zm93 0h31.93v31.93H775zM62 527h31.93v31.93H62z"/><path d="M93 527h31.93v31.93H93z"/><path d="M124 527h31.93v31.93H124zm62 0h31.93v31.93H186zm93 0h31.93v31.93H279z"/><path d="M310 527h31.93v31.93H310zm186 0h31.93v31.93H496zm93 0h31.93v31.93H589zm62 0h31.93v31.93H651z"/><path d="M682 527h31.93v31.93H682z"/><path d="M713 527h31.93v31.93H713z"/><path d="M744 527h31.93v31.93H744zm62 0h31.93v31.93H806z"/><path d="M837 527h31.93v31.93H837zM93 558h31.93v31.93H93z"/><path d="M124 558h31.93v31.93H124z"/><path d="M155 558h31.93v31.93H155zm93 0h31.93v31.93H248zm124 0h31.93v31.93H372z"/><path d="M403 558h31.93v31.93H403zm62 0h31.93v31.93H465z"/><path d="M496 558h31.93v31.93H496zm93 0h31.93v31.93H589z"/><path d="M620 558h31.93v31.93H620zm62 0h31.93v31.93H682zm93 0h31.93v31.93H775zm62 0h31.93v31.93H837z"/><path d="M868 558h31.93v31.93H868z"/><path d="M899 558h31.93v31.93H899z"/><path d="M930 558h31.93v31.93H930zM62 589h31.93v31.93H62zm93 0h31.93v31.93H155zm186 0h31.93v31.93H341zm155 0h31.93v31.93H496z"/><path d="M527 589h31.93v31.93H527zm93 0h31.93v31.93H620z"/><path d="M651 589h31.93v31.93H651zm62 0h31.93v31.93H713z"/><path d="M744 589h31.93v31.93H744z"/><path d="M775 589h31.93v31.93H775z"/><path d="M806 589h31.93v31.93H806zm62 0h31.93v31.93H868z"/><path d="M899 589h31.93v31.93H899z"/><path d="M930 589h31.93v31.93H930zM62 620h31.93v31.93H62zm62 0h31.93v31.93H124zm62 0h31.93v31.93H186z"/><path d="M217 620h31.93v31.93H217z"/><path d="M248 620h31.93v31.93H248z"/><path d="M279 620h31.93v31.93H279zm93 0h31.93v31.93H372zm124 0h31.93v31.93H496z"/><path d="M527 620h31.93v31.93H527zm93 0h31.93v31.93H620zm62 0h31.93v31.93H682zm62 0h31.93v31.93H744zm93 0h31.93v31.93H837z"/><path d="M868 620h31.93v31.93H868zM62 651h31.93v31.93H62zm124 0h31.93v31.93H186z"/><path d="M217 651h31.93v31.93H217zm62 0h31.93v31.93H279zm248 0h31.93v31.93H527zm93 0h31.93v31.93H620z"/><path d="M651 651h31.93v31.93H651z"/><path d="M682 651h31.93v31.93H682zm62 0h31.93v31.93H744zm62 0h31.93v31.93H806zm93 0h31.93v31.93H899z"/><path d="M930 651h31.93v31.93H930zM62 682h31.93v31.93H62zm93 0h31.93v31.93H155zm62 0h31.93v31.93H217z"/><path d="M248 682h31.93v31.93H248zm93 0h31.93v31.93H341z"/><path d="M372 682h31.93v31.93H372zm124 0h31.93v31.93H496zm93 0h31.93v31.93H589zm93 0h31.93v31.93H682z"/><path d="M713 682h31.93v31.93H713z"/><path d="M744 682h31.93v31.93H744z"/><path d="M775 682h31.93v31.93H775z"/><path d="M806 682h31.93v31.93H806zm62 0h31.93v31.93H868zm-558 31h31.93v31.93H310zm155 0h31.93v31.93H465z"/><path d="M496 713h31.93v31.93H496zm62 0h31.93v31.93H558zm93 0h31.93v31.93H651z"/><path d="M682 713h31.93v31.93H682zm124 0h31.93v31.93H806z"/><path d="M837 713h31.93v31.93H837zm62 0h31.93v31.93H899z"/><path d="M930 713h31.93v31.93H930zm-558 31h31.93v31.93H372z"/><path d="M403 744h31.93v31.93H403z"/><path d="M434 744h31.93v31.93H434z"/><path d="M465 744h31.93v31.93H465z"/><path d="M496 744h31.93v31.93H496z"/><path d="M527 744h31.93v31.93H527z"/><path d="M558 744h31.93v31.93H558z"/><path d="M589 744h31.93v31.93H589z"/><path d="M620 744h31.93v31.93H620z"/><path d="M651 744h31.93v31.93H651z"/><path d="M682 744h31.93v31.93H682zm62 0h31.93v31.93H744zm62 0h31.93v31.93H806zm-403 31h31.93v31.93H403z"/><path d="M434 775h31.93v31.93H434zm62 0h31.93v31.93H496zm62 0h31.93v31.93H558z"/><path d="M589 775h31.93v31.93H589z"/><path d="M620 775h31.93v31.93H620z"/><path d="M651 775h31.93v31.93H651z"/><path d="M682 775h31.93v31.93H682zm124 0h31.93v31.93H806z"/><path d="M837 775h31.93v31.93H837zm62 0h31.93v31.93H899zm-589 31h31.93v31.93H310z"/><path d="M341 806h31.93v31.93H341zm62 0h31.93v31.93H403z"/><path d="M434 806h31.93v31.93H434zm62 0h31.93v31.93H496z"/><path d="M527 806h31.93v31.93H527z"/><path d="M558 806h31.93v31.93H558z"/><path d="M589 806h31.93v31.93H589z"/><path d="M620 806h31.93v31.93H620zm62 0h31.93v31.93H682z"/><path d="M713 806h31.93v31.93H713z"/><path d="M744 806h31.93v31.93H744z"/><path d="M775 806h31.93v31.93H775z"/><path d="M806 806h31.93v31.93H806z"/><path d="M837 806h31.93v31.93H837z"/><path d="M868 806h31.93v31.93H868zm62 0h31.93v31.93H930zm-620 31h31.93v31.93H310zm62 0h31.93v31.93H372zm124 0h31.93v31.93H496zm93 0h31.93v31.93H589zm62 0h31.93v31.93H651z"/><path d="M682 837h31.93v31.93H682z"/><path d="M713 837h31.93v31.93H713zm62 0h31.93v31.93H775zm62 0h31.93v31.93H837z"/><path d="M868 837h31.93v31.93H868zm-558 31h31.93v31.93H310zm62 0h31.93v31.93H372zm155 0h31.93v31.93H527z"/><path d="M558 868h31.93v31.93H558z"/><path d="M589 868h31.93v31.93H589z"/><path d="M620 868h31.93v31.93H620z"/><path d="M651 868h31.93v31.93H651z"/><path d="M682 868h31.93v31.93H682z"/><path d="M713 868h31.93v31.93H713z"/><path d="M744 868h31.93v31.93H744z"/><path d="M775 868h31.93v31.93H775z"/><path d="M806 868h31.93v31.93H806z"/><path d="M837 868h31.93v31.93H837z"/><path d="M868 868h31.93v31.93H868z"/><path d="M899 868h31.93v31.93H899zm-527 31h31.93v31.93H372z"/><path d="M403 899h31.93v31.93H403zm248 0h31.93v31.93H651z"/><path d="M682 899h31.93v31.93H682zm62 0h31.93v31.93H744zm62 0h31.93v31.93H806z"/><path d="M837 899h31.93v31.93H837zm62 0h31.93v31.93H899zm-496 31h31.93v31.93H403z"/><path d="M434 930h31.93v31.93H434zm62 0h31.93v31.93H496z"/><path d="M527 930h31.93v31.93H527z"/><path d="M558 930h31.93v31.93H558z"/><path d="M589 930h31.93v31.93H589z"/><path d="M620 930h31.93v31.93H620zm186 0h31.93v31.93H806zm62 0h31.93v31.93H868zM62 62v217h217V62zm186 186H93V93h155zM744 62v217h217V62zm186 186H775V93h155zM62 744v217h217V744zm186 186H93V775h155z"/><path d="M124 124h93v93h-93zm682 0h93v93h-93zM124 806h93v93h-93z"/></svg>